<?xml version="1.0" standalone="no"?>
<!DOCTYPE svg PUBLIC "-//W3C//DTD SVG 20010904//EN"
 "http://www.w3.org/TR/2001/REC-SVG-20010904/DTD/svg10.dtd">
<svg version="1.0" xmlns="http://www.w3.org/2000/svg"
 width="256.000000pt" height="204.000000pt" viewBox="0 0 256.000000 204.000000"
 preserveAspectRatio="xMidYMid meet">

<g transform="translate(0.000000,204.000000) scale(0.100000,-0.100000)"
fill="#000000" stroke="none">
<path d="M470 2031 c-48 -15 -87 -40 -119 -76 -56 -64 -62 -93 -71 -305 -6
-145 -14 -216 -29 -275 -42 -159 -108 -252 -198 -278 l-48 -14 0 -63 0 -63 48
-14 c90 -26 156 -119 198 -278 15 -60 23 -129 29 -275 8 -213 15 -240 72 -305
17 -20 50 -46 72 -58 l41 -22 815 0 815 0 41 22 c48 26 100 82 122 132 11 26
17 92 23 231 5 147 12 215 28 275 42 158 109 252 200 279 l46 13 0 63 0 63
-46 13 c-91 27 -158 121 -200 279 -16 60 -23 128 -28 275 -6 139 -12 205 -23
231 -22 50 -74 106 -122 132 l-41 22 -800 2 c-440 1 -811 -2 -825 -6z m945
-472 c157 -29 245 -126 245 -268 0 -93 -48 -173 -129 -213 l-49 -25 55 -17
c189 -60 243 -315 98 -461 -85 -84 -185 -105 -514 -105 l-231 0 0 550 0 550
233 0 c128 0 260 -5 292 -11z"/>
<path d="M1070 1266 l0 -156 138 0 c150 0 193 12 241 64 35 37 41 127 12 173
-36 58 -68 67 -238 71 l-153 4 0 -156z"/>
<path d="M1070 794 l0 -176 163 4 c149 3 166 5 211 28 67 34 88 74 84 158 -4
56 -8 66 -38 97 -50 49 -122 65 -287 65 l-133 0 0 -176z"/>
</g>
</svg>
