<?xml version="1.0" standalone="no"?>
<!DOCTYPE svg PUBLIC "-//W3C//DTD SVG 20010904//EN"
 "http://www.w3.org/TR/2001/REC-SVG-20010904/DTD/svg10.dtd">
<svg version="1.0" xmlns="http://www.w3.org/2000/svg"
 width="256.000000pt" height="256.000000pt" viewBox="0 0 256.000000 256.000000"
 preserveAspectRatio="xMidYMid meet">

<g transform="translate(0.000000,256.000000) scale(0.100000,-0.100000)"
fill="#000000" stroke="none">
<path d="M1125 2549 c-556 -72 -993 -482 -1102 -1037 -23 -117 -23 -347 0
-464 52 -264 166 -479 356 -669 189 -188 392 -297 666 -355 110 -23 350 -24
467 -1 441 87 797 382 957 792 62 157 84 281 84 465 0 184 -22 308 -84 465
-70 179 -164 319 -306 456 -276 266 -663 395 -1038 348z m-335 -1011 c96 -150
183 -287 194 -304 l21 -31 -3 303 -3 304 45 0 46 0 0 -365 0 -365 -53 0 -54 0
-123 193 c-68 105 -157 243 -197 306 l-73 114 0 -307 0 -306 -45 0 -45 0 0
365 0 365 58 0 59 0 173 -272z m860 232 l0 -40 -140 0 -140 0 0 -120 0 -120
130 0 130 0 0 -40 0 -40 -130 0 -130 0 0 -125 0 -125 150 0 150 0 0 -40 0 -40
-195 0 -195 0 0 365 0 365 185 0 185 0 0 -40z m590 0 l0 -40 -105 0 -105 0 0
-325 0 -325 -45 0 -45 0 0 325 0 325 -105 0 -105 0 0 40 0 40 255 0 255 0 0
-40z m-1912 -596 c29 -20 31 -79 3 -94 -45 -23 -91 2 -91 51 0 27 30 59 55 59
6 0 21 -7 33 -16z m706 -270 c9 -3 16 -14 16 -24 0 -16 -6 -18 -55 -13 -99 10
-155 -37 -155 -131 0 -90 53 -143 134 -133 23 3 49 8 59 12 13 5 17 2 17 -13
0 -16 -10 -24 -37 -31 -56 -16 -84 -13 -133 12 -117 59 -117 238 0 306 35 20
119 28 154 15z m237 -100 c56 -29 76 -121 39 -182 -61 -100 -204 -67 -217 51
-12 108 85 180 178 131z m233 10 c9 -3 16 -15 16 -26 0 -15 -5 -18 -20 -13
-13 4 -28 -2 -45 -19 -23 -23 -25 -33 -25 -106 0 -73 -2 -80 -20 -80 -19 0
-20 7 -20 120 0 113 1 120 20 120 12 0 20 -7 20 -16 0 -13 5 -12 26 5 30 24
27 23 48 15z m196 -11 c33 -19 50 -51 50 -93 l0 -30 -85 0 c-94 0 -101 -6 -64
-54 22 -28 58 -34 103 -16 22 8 26 7 26 -10 0 -14 -11 -23 -39 -31 -50 -15
-86 -6 -122 31 -24 24 -29 37 -29 80 0 61 20 104 58 124 36 20 68 20 102 -1z"/>
<path d="M1161 761 c-44 -44 -29 -143 23 -157 70 -17 119 42 97 118 -18 58
-81 78 -120 39z"/>
<path d="M1601 754 c-12 -15 -21 -31 -21 -36 0 -5 28 -8 63 -6 56 3 62 5 59
23 -8 48 -69 60 -101 19z"/>
</g>
</svg>
